<svg xmlns="http://www.w3.org/2000/svg" viewBox="0 0 100 100" width="100" height="100" role="img" aria-label="深縁の魂" fill="none">
  <path d="M3.5 50 A46.5 46.5 0 1 1 96.5 50 A46.5 46.5 0 1 1 3.5 50 Z" fill="none" stroke="rgba(236,231,221,.22)" stroke-width="0.8"></path>
  <path d="M50 6 L94 50 L50 94 L6 50 Z" fill="none" stroke="#e0b26a" stroke-width="1.5"></path>
  <path d="M50 12 L88 50 L50 88 L12 50 Z" fill="none" stroke="rgba(236,231,221,.22)" stroke-width="0.8"></path>
  <path d="M50 20 A30 30 0 0 1 50 80" fill="none" stroke="#e0b26a" stroke-width="1.7"></path>
  <path d="M50 20 A30 30 0 0 0 50 80" fill="none" stroke="#e0b26a" stroke-width="1.7" stroke-dasharray="22 8"></path>
  <path d="M17 40 V60" fill="none" stroke="rgba(236,231,221,.22)" stroke-width="0.8"></path>
  <path d="M83 40 V60" fill="none" stroke="rgba(236,231,221,.22)" stroke-width="0.8"></path>
  <path d="M50 2.6 L53.4 6 L50 9.4 L46.6 6 Z" fill="#e0b26a"></path>
  <path d="M50 90.6 L53.4 94 L50 97.4 L46.6 94 Z" fill="#e0b26a"></path>
  <path d="M50 85 V89" fill="none" stroke="rgba(236,231,221,.22)" stroke-width="0.8"></path>
  <path d="M91.4 50 A2.6 2.6 0 1 1 96.6 50 A2.6 2.6 0 1 1 91.4 50 Z" fill="none" stroke="rgba(236,231,221,.22)" stroke-width="0.8"></path>
  <path d="M3.4 50 A2.6 2.6 0 1 1 8.6 50 A2.6 2.6 0 1 1 3.4 50 Z" fill="none" stroke="rgba(236,231,221,.22)" stroke-width="0.8"></path>
  <path d="M44 27 A6 6 0 1 1 56 27 A6 6 0 1 1 44 27 Z" fill="none" stroke="#e0b26a" stroke-width="1.7"></path>
  <path d="M41 45 A9 9 0 1 1 59 45 A9 9 0 1 1 41 45 Z" fill="none" stroke="#e0b26a" stroke-width="1.7"></path>
  <path d="M37 68 A13 13 0 1 1 63 68 A13 13 0 1 1 37 68 Z" fill="none" stroke="#e0b26a" stroke-width="1.7"></path>
  <path d="M47 68 A3 3 0 1 1 53 68 A3 3 0 1 1 47 68 Z" fill="#e0b26a"></path>
  <path d="M50 33 V36" fill="none" stroke="rgba(236,231,221,.22)" stroke-width="0.8"></path>
  <path d="M33 68 H37" fill="none" stroke="rgba(236,231,221,.22)" stroke-width="0.8"></path>
  <path d="M63 68 H67" fill="none" stroke="rgba(236,231,221,.22)" stroke-width="0.8"></path>
</svg>